<svg width="175" height="72" viewBox="0 0 175 72" fill="none" xmlns="http://www.w3.org/2000/svg">
<g clip-path="url(#clip0_4392_422)">
<path d="M33.2208 61.8707C33.2208 61.8707 33.2208 61.8707 33.2208 61.7339C33.2208 61.3232 32.8038 60.0913 32.1088 60.0913C31.4138 60.0913 33.6378 57.4905 32.3868 53.384V51.7415C32.2478 51.7415 32.2478 51.7415 32.2478 51.7415L34.1938 32.8517C34.1938 32.8517 34.1938 32.7148 34.1938 32.578C34.0548 32.1673 33.3598 30.9354 33.4988 29.5666C33.4988 29.2928 33.3598 29.019 33.0818 29.019C32.3868 29.019 32.1088 26.5551 29.0508 23.8175C29.0508 23.8175 28.7728 23.5437 28.6338 23.4069C28.2168 22.9962 26.6878 22.038 25.1589 21.3536C23.3519 20.6692 28.4948 10.8137 21.8229 11.0875C17.0969 11.2243 15.8459 17.5209 15.5679 19.1635C15.5679 19.3004 15.5679 19.5742 15.8459 19.5742C16.2629 19.8479 17.2359 20.5323 16.4019 21.2167C15.4289 22.038 13.8999 22.3118 13.2049 24.0913C12.6489 25.7339 11.5369 26.1445 10.0079 24.6388C9.86894 24.5019 9.59095 24.5019 9.45195 24.6388L9.03495 24.9126V23.6806C8.89595 23.4069 8.75695 23.27 8.47895 23.27H7.50596C7.36696 23.27 6.81096 22.3118 6.53296 21.7643C7.78396 21.4905 8.75695 20.943 8.75695 20.943C8.75695 20.943 10.2859 19.8479 7.78396 19.9848C7.22796 19.9848 6.81096 19.9848 6.39396 19.9848L13.0659 0.547542C13.2049 1.32099e-05 12.7879 -0.136869 12.6489 0.41066L3.19698 17.6578C3.19698 17.9316 2.77998 17.9316 2.50199 17.7947L1.11199 16.6996C0.833995 16.4259 0.416998 16.6996 0.416998 17.1103C0.416998 17.9316 0.694996 19.3004 1.66799 20.5323C1.80699 20.8061 1.66799 21.0799 1.66799 21.2167L0.277998 21.9012C0.138999 21.9012 0 22.3118 0 22.4487C0 22.7224 0.277998 22.8593 0.694996 23.1331C0.833995 23.1331 0.972994 23.5437 0.972994 23.6806C0.694996 24.2281 0.416998 25.4601 0.972994 25.8707C1.25099 25.8707 1.25099 26.2814 1.11199 26.5551L0.555997 27.5133C0.555997 27.7871 0.555997 28.0609 0.694996 28.1977L2.50199 29.019C2.64099 29.019 2.77998 29.019 2.91898 29.019L3.47498 28.6084C3.47498 28.6084 3.61398 28.6084 3.75298 28.6084H5.00397C5.28197 28.6084 5.42097 28.7453 5.42097 29.019V30.1141C5.42097 30.251 5.42097 30.3878 5.69897 30.5247L9.31295 32.4411H9.59095L14.8729 31.0723C15.1509 31.0723 15.2899 31.0723 15.4289 31.346C15.4289 31.7567 15.5679 32.4411 15.0119 34.2205C15.0119 34.2205 14.3169 35.4525 15.4289 35.7262C16.5409 36 12.3709 42.4335 14.1779 43.9392C14.3169 43.9392 14.3169 44.2129 14.1779 44.4867C13.8999 45.308 13.0659 47.4981 13.3439 49.4145C13.3439 49.6882 13.2049 49.962 12.9269 49.962H12.0929C11.8149 49.962 11.6759 50.0989 11.6759 50.3726V52.5628V52.8365L14.4559 56.1217C14.4559 56.1217 14.4559 56.2586 14.4559 56.3955V58.8593C14.5949 58.8593 14.5949 58.8593 14.5949 58.8593V59.4069C14.5949 59.5437 14.5949 59.6806 14.3169 59.8175L11.6759 61.1863C11.6759 61.1863 10.4249 62.1445 11.6759 62.692H19.7379C20.0159 62.692 20.1549 62.5551 20.1549 62.2814C20.1549 61.7339 20.1549 60.6388 19.5989 59.9544V59.6806C19.5989 58.7224 20.1549 54.616 18.7649 52.0152C18.7649 52.0152 18.7649 51.7415 18.7649 51.6046L20.5719 47.9088C20.5719 47.7719 20.8499 47.635 21.1279 47.635C21.8229 47.7719 23.2129 48.7301 24.8809 53.2472C24.8809 53.2472 24.8809 53.2472 24.8809 53.384C24.8809 53.7947 24.8809 56.1217 26.2709 58.9962C27.7998 62.1445 24.3249 61.8707 26.9658 63.924C29.7458 65.9772 34.3328 67.6198 34.8888 66.5247C35.4448 65.5666 32.9428 62.692 32.5258 62.2814" fill="#B1BE57"/>
<path d="M78.1175 32.4411V52.8365C78.2565 54.0684 79.0905 55.0266 80.4805 55.9848L75.8935 59.8175C75.4765 59.5437 74.9205 58.9962 74.2255 58.1749C73.5306 57.3536 72.9746 56.6692 72.5576 55.8479C69.7776 58.5855 67.8316 59.8175 66.7196 59.8175C65.6076 59.8175 64.6346 58.9962 62.8276 57.2167C61.0206 55.4373 59.9086 54.0684 59.4916 52.9734C59.0746 51.8783 58.7966 49.5513 58.7966 45.8555C58.7966 42.1597 59.0746 39.8327 59.4916 38.7376C59.9086 37.6426 61.0206 36.2738 62.8276 34.4943C64.6346 32.7148 65.8856 31.8935 66.7196 31.8935C67.9706 31.8935 69.7776 33.1255 72.4186 35.4525L72.9746 32.4411H77.9785H78.1175ZM71.0286 40.1065C70.7506 39.6958 70.3336 39.2852 69.6386 38.8745C68.9436 38.4639 68.3876 38.1901 67.9706 38.1901C67.5536 38.1901 67.1366 38.4639 66.7196 38.8745C66.3026 39.2852 66.0246 39.6958 65.8856 40.1065C65.4686 40.654 65.1906 42.7072 65.1906 46.1293C65.1906 49.5513 65.4686 51.4677 65.8856 52.1521C65.8856 52.4258 66.3026 52.8365 66.7196 53.384C67.1366 53.7947 67.5536 54.0684 67.9706 54.0684C68.3876 54.0684 68.9436 53.7947 69.6386 53.384C70.3336 52.9734 70.8896 52.5627 71.0286 52.1521C71.3066 51.7414 71.3066 49.8251 71.4456 46.2661C71.4456 42.7072 71.4456 40.7909 71.0286 40.3802" fill="#58493F"/>
<path d="M90.4884 59.4068H83.8164V42.1597C83.8164 40.5171 83.6774 39.1483 83.2604 38.1901C82.8434 37.2319 82.1484 36.4106 81.3145 35.7262L86.8744 31.8935C88.1254 32.8517 89.0984 34.0836 89.6544 35.3156C92.1564 32.9886 93.9634 31.7567 94.9364 31.7567C95.9094 31.7567 97.5774 32.7148 99.6623 34.4943C101.747 36.2738 102.72 38.1901 102.72 39.9696V49.5513C102.72 51.1939 102.859 52.5627 103.276 53.5209C103.693 54.4791 104.388 55.3004 105.222 55.9848L99.6623 59.8175C97.2994 57.9011 96.0484 55.1635 96.0484 51.7414V40.654C96.0484 40.1065 95.7704 39.5589 95.0754 38.8745C94.5194 38.327 93.9634 37.9163 93.4074 37.9163C92.8514 37.9163 91.8784 38.6008 90.4884 39.9696V59.1331V59.4068Z" fill="#58493F"/>
<path d="M111.199 34.4943C113.006 32.7148 114.396 31.8935 115.23 31.8935C116.064 31.8935 117.593 32.8517 119.678 34.6312V32.1673C119.678 30.5247 119.539 29.1559 119.122 28.3346C118.705 27.3764 118.01 26.692 117.176 25.8707L122.736 22.038C125.099 23.9544 126.35 26.5551 126.35 30.1141V59.5437H121.207L120.651 56.6692C118.149 58.9962 116.342 60.2281 115.091 60.2281C113.84 60.2281 113.006 59.4068 111.06 57.6274C109.253 55.8479 108.141 54.4791 107.863 53.6578C107.446 52.8365 107.307 50.3726 107.307 46.2662C107.307 42.1597 107.446 39.6958 107.863 38.8745C108.141 38.0532 109.253 36.6844 111.06 34.9049M119.4 40.1065C119.122 39.6958 118.705 39.2852 118.01 38.8745C117.315 38.4639 116.759 38.1901 116.342 38.1901C115.925 38.1901 115.508 38.4639 115.091 38.8745C114.674 39.2852 114.396 39.6958 114.118 40.2433C113.979 40.654 113.84 42.7072 113.84 45.9924C113.84 49.2776 113.84 51.3308 114.118 51.7414C114.257 52.1521 114.674 52.6996 115.091 53.1103C115.508 53.5209 115.925 53.7947 116.203 53.7947C116.481 53.7947 117.037 53.5209 117.871 53.1103C118.566 52.6996 119.122 52.289 119.261 51.8783C119.4 51.4677 119.539 50.0989 119.678 47.9087V46.1293C119.678 42.5703 119.678 40.654 119.261 40.2433" fill="#B1BE57"/>
<path d="M129.964 32.4411H136.636V51.057C136.636 51.6046 136.914 52.1521 137.47 52.8365C138.026 53.384 138.582 53.7947 138.999 53.7947C139.416 53.7947 140.389 53.1103 141.918 51.7414V32.578H148.59V59.4069H143.447L142.891 56.5323C140.389 58.8593 138.582 60.0913 137.609 60.0913C136.636 60.0913 135.107 59.1331 133.022 57.3536C131.076 55.5742 129.964 53.6578 129.964 51.8783V32.578V32.4411Z" fill="#B1BE57"/>
<path d="M172.22 32.4411V52.8365C172.359 54.0684 173.193 55.0266 174.583 55.9848L169.996 59.8175C169.579 59.5437 169.023 58.9962 168.328 58.1749C167.633 57.3536 167.077 56.6692 166.66 55.8479C163.88 58.5855 161.934 59.8175 160.822 59.8175C159.71 59.8175 158.737 58.9962 156.93 57.2167C155.123 55.4373 154.011 54.0684 153.594 52.9734C153.177 51.8783 152.899 49.5513 152.899 45.8555C152.899 42.1597 153.177 39.8327 153.594 38.7376C154.011 37.6426 155.123 36.2738 156.93 34.4943C158.737 32.7148 159.988 31.8935 160.822 31.8935C162.073 31.8935 163.88 33.1255 166.521 35.4525L167.077 32.4411H172.081H172.22ZM165.131 40.1065C164.853 39.6958 164.436 39.2852 163.741 38.8745C163.046 38.4639 162.49 38.1901 162.073 38.1901C161.656 38.1901 161.239 38.4639 160.822 38.8745C160.405 39.2852 160.127 39.6958 159.988 40.1065C159.571 40.654 159.293 42.7072 159.293 46.1293C159.293 49.5513 159.571 51.4677 159.988 52.1521C159.988 52.4258 160.405 52.8365 160.822 53.384C161.239 53.7947 161.656 54.0684 162.073 54.0684C162.49 54.0684 163.046 53.7947 163.741 53.384C164.436 52.9734 164.992 52.5627 165.131 52.1521C165.409 51.7414 165.409 49.8251 165.548 46.2661C165.548 42.7072 165.548 40.7909 165.131 40.3802" fill="#B1BE57"/>
<path d="M38.2247 21.2167C41.0046 19.0266 42.8116 17.9315 43.9236 17.9315C45.0356 17.9315 46.8426 19.0266 49.2056 21.0798C51.5686 23.1331 53.0976 24.6388 53.7926 25.4601C54.3486 26.2814 54.6266 27.6502 54.6266 29.5665C54.6266 31.4829 54.3486 32.9886 53.7926 33.9468C53.2366 34.9049 52.1246 36.1369 50.4566 37.6426C52.9586 39.6958 54.7656 41.3384 55.7386 42.8441C56.1556 43.5285 56.4336 44.8973 56.4336 46.8137C56.4336 48.73 56.1556 50.0989 55.7386 50.6464C55.0436 52.1521 53.2366 54.2053 50.4566 56.5323C47.6766 58.8593 45.4526 60.0912 43.9236 60.0912H31.5527V34.7681C31.5527 31.6198 31.2747 29.2928 30.8577 28.0608C30.4407 26.8289 29.4677 25.1863 27.9387 23.4068L35.8617 17.9315C36.8347 18.7528 37.5297 19.8479 38.0857 21.2167M39.8927 31.2091V35.4525H42.9506C43.3676 35.4525 43.9236 35.0418 44.6186 34.3574C45.3136 33.5361 45.7306 32.8517 46.0086 32.3042C46.2866 31.7566 46.4256 30.9354 46.4256 30.1141C46.4256 29.2928 46.0086 28.3346 45.1746 27.2395C44.3406 26.1445 43.6456 25.7338 42.9506 25.7338C42.2556 25.7338 41.1436 26.0076 39.7537 26.5551C39.7537 28.0608 39.8927 29.7034 39.8927 31.346M39.8927 42.0228V52.8365H44.0626C44.6186 52.8365 45.1746 52.4258 46.0086 51.6046C46.7036 50.7833 47.2596 50.0989 47.6766 49.4144C47.9546 48.8669 48.2326 47.4981 48.2326 45.7186C48.2326 43.9392 47.2596 43.1179 45.1746 42.0228H39.8927Z" fill="#58493F"/>
<path d="M117.454 64.8821H118.844L116.898 72H114.952L113.423 66.5247L111.894 72H109.948L108.002 64.8821H109.392L110.921 70.7681H111.06L112.589 64.8821H114.257L115.925 70.7681L117.454 64.8821Z" fill="#B1BE57"/>
<path d="M121.485 70.6312L121.068 72H119.678L122.041 64.8821H124.126L126.628 72H125.238L124.821 70.6312H121.763H121.485ZM123.014 65.8403L121.763 69.5361H124.265L123.014 65.8403Z" fill="#B1BE57"/>
<path d="M129.408 69.5361V71.8631H128.018V64.7452H131.771C133.3 64.7452 133.995 65.2928 133.995 66.9354C133.995 68.5779 133.995 68.7148 132.744 68.9886C133.717 68.9886 133.995 69.673 133.995 70.6312V72H132.605V70.6312C132.605 70.0836 132.327 69.673 131.632 69.5361H129.547H129.408ZM131.215 68.4411C132.188 68.4411 132.466 68.3042 132.466 67.2091C132.466 66.1141 132.327 65.9772 131.354 65.9772H129.408V68.4411H131.215Z" fill="#B1BE57"/>
<path d="M142.057 68.1673V69.3992C142.057 71.4525 141.501 72 138.999 72C136.497 72 135.802 71.5893 135.802 69.1255V67.4829C135.802 65.1559 136.775 64.7452 138.999 64.7452C141.223 64.7452 142.196 64.7452 142.057 66.9354H140.667C140.667 65.8403 140.111 65.8403 138.999 65.8403C137.887 65.8403 137.192 66.1141 137.192 67.4829V69.1255C137.192 70.6312 137.47 70.7681 138.999 70.7681C140.528 70.7681 140.667 70.7681 140.667 69.3992V69.1255H138.86V68.0304H142.057V68.1673Z" fill="#B1BE57"/>
<path d="M145.254 70.6312L144.837 72H143.447L145.81 64.8821H147.895L150.397 72H149.007L148.59 70.6312H145.532H145.254ZM146.783 65.8403L145.532 69.5361H148.034L146.783 65.8403Z" fill="#B1BE57"/>
<path d="M156.652 72H155.401L153.038 65.9772L153.177 72H151.787V64.8821H154.011L155.957 70.0837H156.096L157.903 64.8821H160.266V72H158.876L159.015 65.9772H158.876L156.652 72Z" fill="#B1BE57"/>
<path d="M163.741 67.7566H167.216V68.8517H163.741V70.7681H167.355V72H162.351V64.7452H167.355V65.9772H163.741V67.7566Z" fill="#B1BE57"/>
<path d="M170.552 69.673V69.9468C170.552 70.7681 170.969 70.7681 172.22 70.7681C173.471 70.7681 173.61 70.4943 173.61 69.673C173.61 68.8517 173.054 68.8517 171.942 68.7148C170.413 68.7148 169.162 68.7148 169.162 66.6616C169.162 64.6084 170.413 64.6084 172.22 64.6084C174.027 64.6084 174.861 64.6084 174.861 66.5247V66.7985H173.471V66.5247C173.471 65.7034 173.193 65.7034 172.22 65.7034C170.83 65.7034 170.552 65.7034 170.552 66.6616C170.552 67.6198 170.691 67.6198 172.081 67.6198C174.305 67.6198 174.861 67.8935 174.861 69.673C174.861 71.4525 173.888 71.8631 172.081 71.8631C170.274 71.8631 169.023 71.8631 169.023 69.8099V69.5361H170.413L170.552 69.673Z" fill="#B1BE57"/>
<path d="M37.1127 42.1597H34.3328C32.3868 42.1597 30.9968 42.4335 30.0238 42.981C29.0508 43.3916 28.0778 44.2129 27.3828 45.1711L22.9348 39.1483C25.0198 36.4107 27.9388 35.1787 31.8308 35.0418" fill="#58493F"/>
</g>
<defs>
<clipPath id="clip0_4392_422">
<rect width="175" height="72" fill="white"/>
</clipPath>
</defs>
</svg>
