<svg width="4741" height="3089" viewBox="0 0 4741 3089" fill="none" xmlns="http://www.w3.org/2000/svg">
<path d="M2168.52 1733.73H2199.23V1945.97H2300.95V1971.74H2168.52V1733.73Z" fill="black"/>
<path d="M2336.61 1800.82L2370.16 1896.88C2375.81 1912.42 2380.39 1926.54 2383.92 1940.68H2384.99C2388.88 1926.56 2393.82 1912.42 2399.47 1896.88L2432.66 1800.82H2465.15L2398.05 1971.75H2368.38L2303.41 1800.82H2336.61Z" fill="black"/>
<path d="M2525.55 1720.99H2494.47V1971.74H2525.55V1720.99Z" fill="black"/>
<path d="M2635.38 1771.16H2634.67L2594.76 1792.7L2588.78 1769.04L2638.92 1742.2H2665.4V1971.76H2635.38V1771.16Z" fill="black"/>
<path d="M503.719 3088.2C417.094 3088.2 336.544 3055.28 276.935 2995.55C273.596 2992.19 270.31 2988.73 267.095 2985.18C257.344 2977.54 248.409 2969.62 239.972 2961.14C236.722 2957.89 233.472 2954.48 230.186 2950.86C220.541 2943.31 211.642 2935.43 203.152 2926.94C199.759 2923.53 196.473 2920.06 193.276 2916.53C183.489 2908.85 174.537 2900.93 166.118 2892.48C162.797 2889.16 159.546 2885.73 156.332 2882.18C146.669 2874.61 137.806 2866.74 129.387 2858.3C125.976 2854.89 122.673 2851.43 119.404 2847.82C109.706 2840.22 100.79 2832.32 92.3175 2823.81C27.6286 2758.96 -5.7284 2667.7 0.807995 2573.46L34.9286 2083.03C36.5982 2058.96 40.8257 2035.04 47.5397 2011.65C44.0939 1988.11 43.1881 1964.13 44.8755 1940.1L138.534 594.03C144.413 509.625 181.553 429.164 243.081 367.494C304.661 305.772 384.981 268.543 469.279 262.646L957.483 228.507C965.228 227.974 973.078 227.69 980.805 227.69C1044.07 227.69 1104.07 245.239 1155.07 277.974C1211.16 233.267 1279.38 205.985 1350.55 201.012L1838.78 166.873C1846.52 166.34 1854.37 166.056 1862.1 166.056C1948.72 166.056 2029.26 198.969 2088.88 258.72C2092.22 262.077 2095.51 265.541 2098.72 269.093C2108.42 276.695 2117.32 284.564 2125.74 293.001C2129.1 296.376 2132.4 299.857 2135.63 303.427C2144.51 310.39 2152.74 317.583 2160.57 325.274L2258.79 226.589C2320.25 164.848 2400.75 127.584 2485.47 121.669L3163.04 74.2804C3170.87 73.7298 3178.81 73.4633 3186.62 73.4633C3273.66 73.4633 3354.4 106.358 3413.96 166.092C3417.32 169.449 3420.66 172.948 3423.99 176.625C3433.73 184.245 3442.59 192.095 3450.92 200.443C3454.31 203.854 3457.62 207.335 3460.89 210.941C3470.51 218.472 3479.34 226.269 3487.71 234.635C3491.17 238.116 3494.51 241.616 3497.81 245.257C3507.55 252.859 3516.45 260.763 3524.86 269.218C3528.22 272.575 3531.54 276.056 3534.78 279.644C3544.42 287.193 3553.28 295.026 3561.68 303.445C3565.08 306.873 3568.4 310.372 3571.63 313.924C3581.33 321.509 3590.21 329.359 3598.61 337.779C3625.7 364.919 3647.33 396.535 3662.91 430.922L3986.46 105.772C4047.94 44.014 4128.47 6.73177 4213.23 0.817051C4220.92 0.284193 4228.73 -3.69049e-05 4236.44 -3.69049e-05C4278.65 -3.69049e-05 4321.15 8.20597 4359.37 23.7477C4402.29 41.1721 4441.27 68.3301 4472.57 102.557C4485.78 112.984 4498.16 124.493 4509.51 136.909C4522.68 147.3 4535.04 158.792 4546.41 171.225C4559.59 181.634 4571.97 193.143 4583.33 205.577C4596.51 215.985 4608.88 227.477 4620.21 239.857C4702.52 304.67 4746.97 406.784 4739.44 514.776L4601.72 2494.22C4595.84 2578.62 4558.73 2659.07 4497.21 2720.76C4435.62 2782.48 4355.31 2819.72 4271.01 2825.62L527.059 3087.38C519.314 3087.93 511.464 3088.2 503.719 3088.2Z" fill="#000F28"/>
<path d="M521.597 3009.18C450.123 3014.17 381.171 2989.02 332.433 2940.17C328.49 2936.19 324.618 2932.02 320.781 2927.52C311.456 2920.61 303.126 2913.44 295.506 2905.8C291.563 2901.86 287.708 2897.68 283.872 2893.19C274.564 2886.3 266.252 2879.14 258.596 2871.48C254.653 2867.51 250.746 2863.28 246.944 2858.84C237.584 2851.89 229.254 2844.74 221.652 2837.12C217.708 2833.15 213.854 2828.98 210.018 2824.5C200.71 2817.61 192.398 2810.46 184.778 2802.82C180.799 2798.84 176.927 2794.67 173.108 2790.17C163.801 2783.28 155.471 2776.12 147.815 2768.45C99.1121 2719.62 74.0144 2650.53 78.9878 2578.87L113.108 2088.45C114.796 2064.13 119.823 2040.19 128.117 2016.94C123.073 1993.71 121.35 1969.8 123.055 1945.54L216.714 599.432C226.163 463.855 339.484 350.267 474.706 340.818L962.91 306.679C1034.37 301.688 1103.32 326.839 1152.06 375.685C1154.54 378.189 1156.99 380.782 1159.43 383.464C1207.35 324.051 1278.4 284.619 1355.98 279.184L1844.2 245.046C1915.66 240.054 1984.59 265.205 2033.35 314.051C2037.29 318.029 2041.2 322.257 2045 326.697C2054.31 333.589 2062.62 340.729 2070.24 348.349C2074.2 352.345 2078.11 356.573 2081.91 361.013C2091.2 367.905 2099.5 375.027 2107.13 382.665C2111.15 386.679 2115.06 390.924 2118.86 395.383C2128.2 402.31 2136.51 409.468 2144.13 417.105C2148.06 421.031 2151.93 425.223 2155.78 429.734C2157.99 431.368 2160.12 433.02 2162.23 434.672L2314.34 281.866C2362.43 233.571 2425.14 204.442 2490.93 199.841L3168.5 152.453C3240.49 147.426 3309.72 172.559 3358.44 221.404C3362.46 225.419 3366.38 229.664 3370.29 234.229C3379.56 241.102 3387.84 248.189 3395.39 255.756C3399.39 259.77 3403.31 264.015 3407.2 268.562C3416.45 275.418 3424.7 282.488 3432.24 290.036C3436.31 294.104 3440.22 298.349 3444.09 302.896C3453.44 309.788 3461.73 316.928 3469.28 324.512C3473.2 328.438 3477.13 332.665 3481.04 337.266C3490.36 344.139 3498.62 351.244 3506.15 358.775C3510.11 362.772 3514.07 367.052 3517.93 371.564C3527.25 378.455 3535.53 385.56 3543.08 393.127C3592.28 442.434 3617.66 511.528 3612.72 582.629L3611.98 593.144L4041.99 161.032C4090.09 112.719 4152.83 83.5718 4218.65 78.9715C4256.86 76.3072 4295.3 82.3107 4329.81 96.3426C4364.11 110.268 4394.73 132.239 4418.9 160.179C4432.44 170.268 4444.8 181.76 4455.83 194.513C4469.35 204.584 4481.69 216.094 4492.76 228.847C4506.27 238.918 4518.62 250.427 4529.67 263.198C4543.2 273.287 4555.54 284.779 4566.58 297.514C4631.87 346.093 4667.11 424.494 4661.19 509.272L4523.47 2488.73C4514.04 2624.29 4400.73 2737.9 4265.49 2747.35L521.597 3009.18Z" fill="white"/>
<path d="M4513.99 353.842C4503.58 340.68 4491.18 329.099 4477.06 319.508C4466.65 306.346 4454.27 294.766 4440.15 285.174C4429.75 272.013 4417.37 260.432 4403.23 250.84C4392.82 237.679 4380.44 226.098 4366.32 216.507C4348.77 194.322 4325.64 176.489 4298.06 165.281C4272.71 154.979 4245.61 151.001 4218.68 152.883C4172.77 156.098 4127.46 176.365 4092.48 211.498L3570.32 736.221C3549.11 757.535 3533.07 783.041 3523.18 810.537L3539.04 582.651C3542.61 531.301 3523.98 482.314 3489.04 447.287C3481.77 439.987 3473.73 433.628 3465.27 427.874C3461.17 422.669 3456.82 417.678 3452.11 412.954C3444.83 405.653 3436.8 399.295 3428.35 393.54C3424.24 388.336 3419.89 383.327 3415.18 378.62C3407.92 371.32 3399.87 364.961 3391.42 359.206C3387.32 354.002 3382.96 348.993 3378.26 344.286C3370.97 336.986 3362.93 330.627 3354.49 324.872C3350.39 319.668 3346.04 314.659 3341.33 309.952C3334.07 302.652 3326.02 296.293 3317.56 290.538C3313.46 285.334 3309.11 280.325 3304.4 275.618C3269.47 240.592 3219.71 222.812 3168.47 226.382L2490.91 273.771C2444.09 277.039 2398.99 297.981 2364.78 332.368L2160.84 537.234C2154.3 530.999 2147.32 525.387 2139.93 520.342C2135.92 515.227 2131.62 510.289 2126.98 505.635C2119.61 498.246 2111.51 491.817 2103.02 486.008C2098.99 480.893 2094.71 475.955 2090.06 471.301C2082.7 463.912 2074.6 457.483 2066.09 451.675C2062.06 446.559 2057.78 441.621 2053.13 436.968C2045.76 429.579 2037.66 423.149 2029.17 417.341C2025.14 412.225 2020.85 407.287 2016.22 402.634C2008.85 395.245 2000.75 388.815 1992.26 383.007C1988.23 377.892 1983.93 372.954 1979.29 368.3C1944.35 333.273 1895.42 315.423 1844.19 319.011L1355.97 353.149C1270.32 359.135 1197.62 422.776 1177.11 504.516C1175.33 502.562 1173.72 500.484 1171.83 498.602C1164.46 491.213 1156.36 484.783 1147.86 478.957C1143.82 473.841 1139.54 468.904 1134.91 464.25C1127.54 456.861 1119.44 450.431 1110.95 444.605C1106.91 439.49 1102.63 434.552 1097.98 429.898C1063.04 394.872 1014.13 377.021 962.883 380.609L474.661 414.748C377.645 421.533 297.148 502.225 290.399 599.472L196.74 1945.61C195.017 1970.39 198.374 1994.6 206.136 2017C195.408 2039.06 188.552 2063.18 186.793 2088.49L152.673 2578.9C149.102 2630.25 166.9 2679.31 201.855 2714.33C209.226 2721.72 217.326 2728.15 225.816 2733.98C229.848 2739.09 234.129 2744.03 238.765 2748.68C246.136 2756.07 254.235 2762.5 262.725 2768.33C266.757 2773.44 271.038 2778.38 275.692 2783.04C283.045 2790.42 291.162 2796.85 299.653 2802.68C303.684 2807.8 307.965 2812.73 312.601 2817.39C319.972 2824.78 328.072 2831.21 336.562 2837.03C340.594 2842.15 344.874 2847.08 349.51 2851.74C356.881 2859.13 364.981 2865.56 373.471 2871.38C377.485 2876.5 381.784 2881.44 386.42 2886.09C421.357 2921.12 470.291 2938.97 521.517 2935.38L4265.43 2673.59C4362.45 2666.8 4442.94 2586.11 4449.69 2488.86L4587.44 509.401C4591.93 445.635 4563.48 387.501 4513.99 353.842Z" fill="#000F28"/>
<path d="M2239.29 1356.62L2641.69 952.393L2647.21 946.833L2591.49 1747.54C2589.86 1771.16 2608.47 1789.83 2632.04 1788.2L3444.6 1731.38C3465.95 1729.89 3483.66 1712.12 3485.15 1690.72L3513.6 1281.81C3515.26 1258.18 3496.62 1239.51 3473.05 1241.15L3154.23 1263.44C3130.66 1265.09 3112.02 1246.42 3113.68 1222.78L3167.18 430.938C3167.9 420.192 3159.41 411.702 3148.69 412.448L2694.89 444.189L2507 457.332C2496.7 458.061 2486.77 462.661 2479.24 470.227L1874.55 1077.69C1847.57 1104.79 1803.66 1086.94 1806.24 1049.92L1841.21 547.368C1842.86 523.744 1824.23 505.076 1800.66 506.711L1393.95 535.147C1372.6 536.639 1354.89 554.401 1353.4 575.804L1299.15 1355.34C1297.66 1376.74 1279.95 1394.49 1258.6 1396L947.023 1417.79C923.453 1419.44 904.82 1400.76 906.472 1377.13L959.918 608.984C961.552 585.36 942.938 566.693 919.367 568.327L512.655 596.763C491.305 598.255 473.596 616.017 472.104 637.421L384.112 1901.87C382.46 1925.5 401.092 1944.17 424.662 1942.53L1732.15 1851.09C1742.46 1850.38 1752.38 1845.76 1759.92 1838.2L2239.29 1356.62Z" fill="white"/>
<path d="M3444.6 1768.3L2632.04 1825.12C2610.6 1826.62 2589.93 1819.08 2575.29 1804.43C2560.68 1789.76 2553.14 1769.03 2554.64 1747.52L2603.82 1040.99L2264.51 1381.84L1785.1 1863.44C1770.7 1877.91 1751.89 1886.67 1732.13 1888.05L424.643 1979.47C403.187 1980.97 382.512 1973.44 367.894 1958.78C353.276 1944.11 345.745 1923.38 347.237 1901.87L435.229 637.436C438.036 596.761 472.05 562.676 512.636 559.834L919.349 531.398C940.787 529.906 961.462 537.437 976.098 552.108C990.716 566.762 998.247 587.508 996.755 608.999L943.31 1377.15C943.239 1378.22 943.558 1379.14 944.304 1379.89C945.032 1380.61 945.938 1380.93 947.004 1380.86L1258.6 1359.07C1260.54 1358.93 1262.15 1357.29 1262.3 1355.34L1316.54 575.82C1319.37 535.145 1353.36 501.06 1393.95 498.218L1800.66 469.781C1822.12 468.289 1842.79 475.821 1857.41 490.492C1872.03 505.145 1879.56 525.891 1878.07 547.383L1843.09 1049.94C1843.02 1050.93 1842.92 1052.46 1845.21 1053.39C1847.52 1054.33 1848.58 1053.21 1849.33 1052.46L2454.03 445.003C2468.44 430.51 2487.27 421.753 2507.02 420.368L3148.7 375.501C3164 374.435 3178.77 379.817 3189.22 390.261C3199.68 400.723 3205.08 415.501 3204.05 430.865L3150.55 1222.73C3150.48 1223.86 3150.8 1224.79 3151.54 1225.52C3152.29 1226.24 3153.18 1226.58 3154.24 1226.49L3473.09 1204.2C3494.54 1202.71 3515.2 1210.26 3529.84 1224.91C3544.46 1239.57 3551.99 1260.29 3550.49 1281.79L3522.02 1690.7C3519.16 1731.38 3485.18 1765.46 3444.6 1768.3ZM2690.62 852.64L2628.35 1747.54C2628.28 1748.61 2628.6 1749.55 2629.34 1750.26C2630.07 1750.99 2630.98 1751.32 2632.04 1751.23L3444.6 1694.41C3446.53 1694.27 3448.15 1692.67 3448.27 1690.74L3476.75 1281.8C3476.82 1280.74 3476.5 1279.83 3475.75 1279.09C3475.02 1278.36 3474.12 1278.04 3473.05 1278.11L3154.21 1300.4C3132.77 1301.89 3112.09 1294.34 3097.48 1279.69C3082.84 1265.04 3075.31 1244.29 3076.8 1222.8L3128.97 450.776L2506.98 494.275C2506.04 494.346 2505.13 494.772 2504.46 495.465L1899.75 1102.91C1876.33 1126.48 1842.4 1134.1 1813.43 1122.32C1784.43 1110.54 1767.13 1082.14 1769.36 1049.94L1804.34 547.366C1804.41 546.3 1804.09 545.376 1803.34 544.648C1802.61 543.92 1801.69 543.582 1800.64 543.671L1393.93 572.108C1391.99 572.25 1390.38 573.866 1390.24 575.802L1335.99 1355.36C1333.15 1396.03 1299.13 1430.12 1258.58 1432.96L946.986 1454.75C925.548 1456.24 904.873 1448.71 890.237 1434.04C875.619 1419.39 868.088 1398.64 869.58 1377.15L923.025 608.999C923.096 607.934 922.777 607.01 922.031 606.264C921.303 605.536 920.379 605.198 919.331 605.287L512.618 633.724C510.682 633.866 509.066 635.483 508.924 637.436L420.931 1901.89C420.86 1902.96 421.18 1903.9 421.926 1904.63C422.654 1905.35 423.56 1905.67 424.626 1905.6L1732.12 1814.18C1733.06 1814.11 1733.95 1813.7 1734.62 1813.01L2690.62 852.64Z" fill="#000F28"/>
<path d="M4115.01 1826.66L4211.42 441.247C4214 404.232 4170.09 386.381 4143.11 413.503L3708.14 850.607C3700.62 858.138 3696.06 868.067 3695.35 878.351L3629.63 1822.79C3628.14 1844.19 3610.43 1861.95 3589.08 1863.45L409.019 2085.81C387.669 2087.3 369.96 2105.06 368.468 2126.46L340.032 2535.18C338.397 2558.81 357.012 2577.48 380.582 2575.84L4043 2319.73C4064.35 2318.24 4082.06 2300.48 4083.55 2279.07L4115.01 1826.66Z" fill="white"/>
<path d="M4042.98 2356.66L380.563 2612.77C359.107 2614.26 338.45 2606.71 323.814 2592.06C309.196 2577.4 301.665 2556.67 303.157 2535.18L331.611 2126.46C334.453 2085.79 368.467 2051.68 409.018 2048.86L3589.08 1826.48C3591.03 1826.34 3592.65 1824.74 3592.77 1822.79L3658.49 878.33C3659.88 858.597 3668.55 839.787 3682.9 825.364L4117.87 388.278C4141.31 364.726 4175.24 357.071 4204.21 368.865C4233.23 380.641 4250.52 409.06 4248.28 441.262L4151.88 1826.66L4120.41 2279.07C4117.55 2319.75 4083.55 2353.83 4042.98 2356.66ZM409.018 2122.75C407.082 2122.89 405.466 2124.53 405.324 2126.5L376.869 2535.2C376.798 2536.26 377.118 2537.17 377.864 2537.92C378.592 2538.64 379.498 2538.98 380.563 2538.89L4042.98 2282.78C4044.92 2282.64 4046.54 2281.03 4046.68 2279.05L4174.57 441.245C4174.64 440.232 4174.74 438.705 4172.45 437.781C4170.2 436.84 4169.08 437.976 4168.33 438.705L3733.36 875.808C3732.67 876.501 3732.26 877.407 3732.19 878.366L3666.47 1822.79C3663.66 1863.44 3629.65 1897.53 3589.06 1900.37L409.018 2122.75Z" fill="#000F28"/>
<path d="M1264.25 1883.83L1304.93 1271.95L1264.25 1883.83Z" fill="black"/>
<path d="M1301.13 1883.7L1227.42 1883.95L1268.07 1272.07L1341.79 1271.82L1301.13 1883.7Z" fill="#000F28"/>
<path d="M2676.04 1062.13L2602.44 1060.61L2658.07 443.432L2731.67 444.96L2676.04 1062.13Z" fill="#000F28"/>
</svg>
